<svg id="Layer_1" data-name="Layer 1" xmlns="http://www.w3.org/2000/svg" xmlns:xlink="http://www.w3.org/1999/xlink" viewBox="0 0 687.2 533.98"><defs><style>.cls-1{fill:none;}.cls-2{clip-path:url(#clip-path);}.cls-3{fill:#fff;}.cls-4{isolation:isolate;}</style><clipPath id="clip-path" transform="translate(-56.28 -103.21)"><rect class="cls-1" x="56.31" y="103.22" width="687.17" height="432.75"/></clipPath></defs><g class="cls-2"><path class="cls-3" d="M143.68,296H61.91a5,5,0,0,1-4.68-2.4,7.61,7.61,0,0,1-.65-5.78l45.63-178.75q1.56-5.85,7.93-5.85h22.62a5,5,0,0,1,4.68,2.47,7.84,7.84,0,0,1,.65,5.85L99.22,264.29h51.09q8.06,0,6.11,8.58l-3.64,15.73a8.41,8.41,0,0,1-3.31,5.19,9.26,9.26,0,0,1-5.79,2.21" transform="translate(-56.28 -103.21)"/><path class="cls-3" d="M246.11,182.39q-10.4-3.37-14.3-.65-5.46,4.15-14,27.17t-11.5,39.39a27.33,27.33,0,0,0-.72,6.5c.13,1,.79,1.56,2,1.56q2.08,0,6.18-4.75A95,95,0,0,0,223.1,238q12-20.55,23-55.64m-19,112.05-7-16.76h.13l-.52-1.17-2.47,3q-8.19,9.75-12.8,13.52t-9.29,3.77h-2q-4.56,0-13.27-8.7-11.56-11.58-10.13-25.87,2.85-28.86,15.08-61.43t23.52-41.14a34,34,0,0,1,21.32-6.89,36.71,36.71,0,0,1,21.84,7.41l.26-1.3a25.09,25.09,0,0,1,1-3.51,6.1,6.1,0,0,1,1.94-2.47,5.58,5.58,0,0,1,3.64-1.17l17-.26q9.89,0,7.54,8.84L253.69,258a45.62,45.62,0,0,0,5.72-7.28q2.59-4.29,6.76-1.82l11.7,7.67q4.15,2.85,1.82,6.11a104.2,104.2,0,0,1-21.84,23.4q-12.47,9.74-26.13,11.17c-2.08.27-3.64-.69-4.68-2.86" transform="translate(-56.28 -103.21)"/><path class="cls-3" d="M332.56,191.62l19.5-27.17a37.89,37.89,0,0,1,9.29-9.23,19.3,19.3,0,0,1,10.73-3h13A13.39,13.39,0,0,1,395,156q3.76,3.76,1.29,13.26l-32.49,123c-.78,2.68-3,4-6.64,4L335.54,296a3.1,3.1,0,0,1-2.53-1.62q-1.11-1.62-.19-4.75l16.51-60.7a34.69,34.69,0,0,1,1-3.45c.51-1.52.87-2.79,1.17-3.83s.65-2.3,1-3.77a32.29,32.29,0,0,0,.78-3.64c.13-1,.24-1.89.32-2.8a4.21,4.21,0,0,0-.19-2.08,1.14,1.14,0,0,0-1.1-.71,2.55,2.55,0,0,0-1.5.52,8.58,8.58,0,0,0-1.69,1.82c-.65.87-1.19,1.64-1.62,2.34s-1.09,1.78-1.95,3.25l-2.08,3.51q-7.29,11.82-21,39t-17,31.84Q301.74,296,297.2,296H281a4.29,4.29,0,0,1-3.71-2,5.68,5.68,0,0,1-.58-4.88l34.71-129.47q1.68-7.41,7.93-7.41h17c3.37,0,5.59.63,6.62,1.88s1,3.41,0,6.44Z" transform="translate(-56.28 -103.21)"/><path class="cls-3" d="M468.92,182.39q-10.4-3.37-14.17-.65-5.46,4.17-14,27.17T429.14,248.3a24.5,24.5,0,0,0-.65,6.5,1.84,1.84,0,0,0,2.08,1.55c1.38,0,3.44-1.57,6.18-4.74A95.9,95.9,0,0,0,446,238q12.62-21.58,21.45-51.74ZM442,277.29l-1.95,2.21q-8.19,9.75-12.8,13.52T418,296.79h-1.83q-4.56,0-13.26-8.72-11.57-11.56-10.14-25.86,2.87-28.86,15.08-61.43t23.53-41.14a34,34,0,0,1,21.32-6.89q12,0,22.75,8.06,2.46-8.33,8.32-8.32l16.25-.26q7,0,5.59,7.15-5.33,21.45-15.08,56.22t-18.65,65.33q-8.91,30.54-9.43,32.36-5.71,20.67-18.33,27.43a69,69,0,0,1-10.66,5,18.31,18.31,0,0,1-8.45.52A31.06,31.06,0,0,1,414.32,342l-27.17-15.34c-2.34-1-3.59-2.6-3.77-4.68a5.74,5.74,0,0,1,1.69-4.93l8.45-11.45a10.17,10.17,0,0,1,4.23-3,6.84,6.84,0,0,1,4.62.79L425.5,316q4.56,2.33,7.15-6.25Z" transform="translate(-56.28 -103.21)"/><path class="cls-3" d="M143.68,530.79H61.91a5,5,0,0,1-4.68-2.41,7.61,7.61,0,0,1-.65-5.78l45.63-178.74q1.56-5.87,7.93-5.86h22.62a5,5,0,0,1,4.68,2.47,7.84,7.84,0,0,1,.65,5.85L99.22,499.07h51.09q8.06,0,6.11,8.58l-3.64,15.73a8.43,8.43,0,0,1-3.31,5.2,9.26,9.26,0,0,1-5.79,2.21" transform="translate(-56.28 -103.21)"/><path class="cls-3" d="M208.8,462.67q9.24-5.85,15.93-18.46t6.69-23.14c0-2.77-.23-4.66-.71-5.65a2.69,2.69,0,0,0-2.67-1.5c-1.29,0-2.79,1.39-4.48,4.16a48.69,48.69,0,0,0-4.1,8.32q-5.19,13.52-10.66,36.27m-6.24,29q-1.17,6.1-.58,7.86c.39,1.17,1.62,2.11,3.71,2.8q4.41-.91,17.81-15.21a4,4,0,0,1,2.59-1.17,4.12,4.12,0,0,1,2.73.65l13,7.93a5.3,5.3,0,0,1,2.28,2.86,3.7,3.7,0,0,1,.06,3.12q-4.68,9.11-21.58,22.88t-23.39,12.48q-25.49-5.6-29-21.84-2.33-11.44,1.7-34.84A254.61,254.61,0,0,1,184.43,433q8.5-22.74,17.49-31.07a59.09,59.09,0,0,1,12.54-9.29,39.51,39.51,0,0,1,13.65-4.55A24.19,24.19,0,0,1,241.56,390q18.58,7.94,18.6,27.43,0,13.26-8.33,28.67a106.83,106.83,0,0,1-21.71,27.81q-13.38,12.42-27.56,17.75" transform="translate(-56.28 -103.21)"/><path class="cls-3" d="M310.2,481q21.06-46.41,31.2-90,1.29-5.58,7.54-5.07l20.93,1.56a7.7,7.7,0,0,1,4.87,2.28,3.93,3.93,0,0,1,.85,4.35q-28,82.29-53.56,121.42A70.51,70.51,0,0,1,313,527c-2.6,2.51-5.2,3.76-7.8,3.77l-18.72-1.3a10.31,10.31,0,0,1-6.56-4c-1.78-2.26-2.5-5.37-2.15-9.36a561.55,561.55,0,0,0,2.4-58q-.18-31.53-2.66-61.17-1.31-9.87,6.37-9.88h20.54a6.26,6.26,0,0,1,4.55,1.43,7.75,7.75,0,0,1,1.82,4.68q3.76,40.56-.65,87.88" transform="translate(-56.28 -103.21)"/><path class="cls-3" d="M412.64,462.67q9.23-5.85,15.92-18.46t6.69-23.14c0-2.77-.23-4.66-.71-5.65a2.67,2.67,0,0,0-2.67-1.5c-1.33,0-2.83,1.39-4.48,4.16a49.39,49.39,0,0,0-4.09,8.32q-5.21,13.52-10.66,36.27m-6.24,29q-1.17,6.1-.59,7.86c.39,1.17,1.62,2.11,3.71,2.8q4.41-.91,17.81-15.21a4.06,4.06,0,0,1,2.6-1.17,4.12,4.12,0,0,1,2.73.65l13,7.93a5.36,5.36,0,0,1,2.27,2.86,3.74,3.74,0,0,1,.07,3.12q-4.68,9.11-21.58,22.88T403,535.86q-25.49-5.6-29-21.84-2.34-11.44,1.69-34.84A254.59,254.59,0,0,1,388.26,433q8.5-22.74,17.49-31.07a59.09,59.09,0,0,1,12.54-9.29,39.79,39.79,0,0,1,13.65-4.55A24.21,24.21,0,0,1,445.4,390q18.6,7.94,18.6,27.43,0,13.26-8.33,28.67A107.22,107.22,0,0,1,434,473.91q-13.39,12.42-27.56,17.75" transform="translate(-56.28 -103.21)"/><path class="cls-3" d="M467.75,518.05a16.62,16.62,0,0,1,5.33-12.42,18.56,18.56,0,0,1,13.39-5.13h3.38q6.24,0,11.64,5.39a16.83,16.83,0,0,1,5.39,12.16,16.35,16.35,0,0,1-5.46,12.48,19.27,19.27,0,0,1-13.65,5.07h-3.25a15.7,15.7,0,0,1-11.76-5.27,17.2,17.2,0,0,1-5-12.28" transform="translate(-56.28 -103.21)"/><path class="cls-3" d="M529.76,518.05a16.65,16.65,0,0,1,5.33-12.42,18.5,18.5,0,0,1,13.39-5.13h3.38q6.24,0,11.63,5.39a16.8,16.8,0,0,1,5.4,12.16,16.35,16.35,0,0,1-5.46,12.48,19.27,19.27,0,0,1-13.65,5.07h-3.25a15.73,15.73,0,0,1-11.76-5.27,17.2,17.2,0,0,1-5-12.28" transform="translate(-56.28 -103.21)"/><path class="cls-3" d="M591.77,518.05a16.62,16.62,0,0,1,5.33-12.42,18.5,18.5,0,0,1,13.39-5.13h3.38q6.24,0,11.63,5.39c3.59,3.6,5.4,7.65,5.4,12.16a16.35,16.35,0,0,1-5.46,12.48,19.27,19.27,0,0,1-13.65,5.07h-3.25a15.74,15.74,0,0,1-11.77-5.27,17.3,17.3,0,0,1-5-12.28" transform="translate(-56.28 -103.21)"/><path class="cls-3" d="M669.72,473.33,698.9,341.51c1-3.89,3.71-5.84,8-5.84h30.5q7.26,0,5.84,6.11L698.12,473.59q-1.56,5.85-7.91,5.85H675.56q-7.26,0-5.84-6.11m-15.94,44.72A16.78,16.78,0,0,1,659,505.63a18.25,18.25,0,0,1,13.29-5.13h3.5q6.23,0,11.6,5.39a16.83,16.83,0,0,1,5.39,12.16,16.39,16.39,0,0,1-5.45,12.48,19.19,19.19,0,0,1-13.62,5.07H670.5a15.71,15.71,0,0,1-11.73-5.27,17.3,17.3,0,0,1-5-12.28" transform="translate(-56.28 -103.21)"/></g><g class="cls-4"><g class="cls-4"><path class="cls-3" d="M57.87,605A40.1,40.1,0,0,1,61.28,596a20.08,20.08,0,0,1,5.07-6.28,9.87,9.87,0,0,1,6.24-2.36,12,12,0,0,1,2.78.36,9.22,9.22,0,0,1,2.6,1,6.46,6.46,0,0,1,2.8,3.51,18.66,18.66,0,0,1,.84,6.16,51.21,51.21,0,0,1-1.83,12.15,45.4,45.4,0,0,1-2.17,6.47,27.63,27.63,0,0,1-3,5.31,13.41,13.41,0,0,1-4,3.72,9.3,9.3,0,0,1-4.82,1.34,10.43,10.43,0,0,1-5.1-1.09,7.39,7.39,0,0,1-3.35-4.08,21.22,21.22,0,0,1-1-7.06A41.33,41.33,0,0,1,57.87,605Zm7.72,1.75a55.34,55.34,0,0,0-1.47,7.53,14.91,14.91,0,0,0,.08,5c.29,1.15.82,1.73,1.6,1.73a2.63,2.63,0,0,0,1.65-.59,8.45,8.45,0,0,0,1.67-2.14,40.77,40.77,0,0,0,3.36-9.6q.8-3.23,1.22-5.75a36.36,36.36,0,0,0,.51-4.4,7.18,7.18,0,0,0-.33-2.88,1.37,1.37,0,0,0-1.29-1,3.5,3.5,0,0,0-1.87.46,5.48,5.48,0,0,0-1.6,1.87Q67.4,599.76,65.59,606.73Z" transform="translate(-56.28 -103.21)"/><path class="cls-3" d="M93.83,619.06l-3.18,4.51a10.26,10.26,0,0,1-2.43,2.84,4.25,4.25,0,0,1-2.51.79h-.34a3.57,3.57,0,0,1-3.25-1.72,5.78,5.78,0,0,1-.28-4.64l6.1-22.25c.18-.51.63-.76,1.35-.76h4.25c.7,0,.9.52.58,1.56l-4.19,14.08c-.32,1.32-.3,2,0,2.12s1-.64,1.81-2.17q5.56-10.32,7.39-14.35a1.89,1.89,0,0,1,1.78-1.24h3.32a.85.85,0,0,1,.75.41,1.12,1.12,0,0,1,.12,1L98.1,625.69a1.62,1.62,0,0,1-1.65,1.46H93.09c-1.1,0-1.44-.65-1-2Z" transform="translate(-56.28 -103.21)"/><path class="cls-3" d="M115.31,626.83l-.16-.4-.32-.74-1-2.28h0l-.11-.24-.5.61a21.7,21.7,0,0,1-2.61,2.76,3,3,0,0,1-1.9.77h-.37a3.41,3.41,0,0,1-2.25-1.11,8.56,8.56,0,0,1-2-2.8,6.15,6.15,0,0,1-.6-3.14,49.92,49.92,0,0,1,3.08-12.53q2.49-6.65,4.8-8.39a6.92,6.92,0,0,1,4.35-1.41,7.44,7.44,0,0,1,4.56,1.57l3.31-12.36a1.51,1.51,0,0,1,1.64-1.19h4c1,0,1.38.41,1.19,1.24l-9,31.87a7.77,7.77,0,0,0,1-1.19c.39-.58.84-.67,1.36-.26l2.28,1.67c.54.42.66.85.34,1.29a24.53,24.53,0,0,1-4.77,4.63,11.15,11.15,0,0,1-5.38,2.22A.84.84,0,0,1,115.31,626.83ZM119.18,604c-1.42-.46-2.38-.51-2.89-.14-.75.57-1.7,2.42-2.87,5.55a49.46,49.46,0,0,0-2.36,8,5.47,5.47,0,0,0-.14,1.33c0,.21.16.31.41.31.69,0,1.8-1.45,3.33-4.37a74.89,74.89,0,0,0,4.22-9.92Z" transform="translate(-56.28 -103.21)"/><path class="cls-3" d="M149.83,617.34a103.4,103.4,0,0,0,5.78-17.5,2.07,2.07,0,0,1,0-.41,2,2,0,0,0,0-.41.89.89,0,0,1,.31-.9,1.55,1.55,0,0,1,1-.29h3.85a1.06,1.06,0,0,1,.83.29,1.58,1.58,0,0,1,.36,1,129,129,0,0,1,.24,18.14,104.49,104.49,0,0,0,6-18.56,1.17,1.17,0,0,1,1.41-1l4.08.32a1.26,1.26,0,0,1,.9.45.89.89,0,0,1,.11.9q-5,16.15-10.15,24.77a13.88,13.88,0,0,1-1.66,2.33,2.1,2.1,0,0,1-1.47.77l-3.87-.21a1.65,1.65,0,0,1-1.25-1,3.62,3.62,0,0,1-.42-2.19q.39-4.42.39-9.86a58.29,58.29,0,0,1-4.58,10.13,13.88,13.88,0,0,1-1.66,2.33,2.08,2.08,0,0,1-1.45.77l-3.84-.21a1.68,1.68,0,0,1-1.26-1,3.63,3.63,0,0,1-.44-2.19,145.43,145.43,0,0,0-.21-24.76.91.91,0,0,1,.3-.9,1.58,1.58,0,0,1,1-.29h4.35a1.18,1.18,0,0,1,.89.29,1.65,1.65,0,0,1,.35,1A131.86,131.86,0,0,1,149.83,617.34Z" transform="translate(-56.28 -103.21)"/><path class="cls-3" d="M175.65,604.83a14.4,14.4,0,0,1,4-5.35,9.19,9.19,0,0,1,6.08-2.13,7.76,7.76,0,0,1,3.57.77,6,6,0,0,1,2.56,2.86,7.26,7.26,0,0,1,.67,2.08,13,13,0,0,1,.24,2c0,.48,0,1.29,0,2.44a24.31,24.31,0,0,1-1.06,6.95,28.77,28.77,0,0,1-2.83,6.57,17.87,17.87,0,0,1-4.07,4.83,7.41,7.41,0,0,1-4.63,1.77,9.54,9.54,0,0,1-2.94-.38,6.07,6.07,0,0,1-2.44-1.71,8,8,0,0,1-1.81-3.43,16.59,16.59,0,0,1-.58-4.39A30.23,30.23,0,0,1,175.65,604.83Zm7.88,13.52a25.91,25.91,0,0,0,1.51-3.56,24.19,24.19,0,0,0,.87-3,17.31,17.31,0,0,0,.53-2.73,13.34,13.34,0,0,0,0-3.57c-.16-1.19-.57-1.79-1.24-1.79a2.45,2.45,0,0,0-2,1.15,14.89,14.89,0,0,0-1.72,3.36s-.11.29-.29.74-.34.9-.49,1.3-.34,1-.56,1.65-.4,1.33-.55,1.92a18.15,18.15,0,0,0-.39,2,12.48,12.48,0,0,0-.16,1.91,8.93,8.93,0,0,0,.25,2.52,1.45,1.45,0,0,0,1.21.9,2.94,2.94,0,0,0,1.56-.69A7.37,7.37,0,0,0,183.53,618.35Z" transform="translate(-56.28 -103.21)"/><path class="cls-3" d="M205.32,602.76c.69-1,1.42-2,2.18-2.92a3,3,0,0,1,.22-.28,1.73,1.73,0,0,0,.21-.25l.18-.21a1.56,1.56,0,0,1,.17-.2l.16-.16.18-.19.17-.16.22-.15.21-.15a4.35,4.35,0,0,1,2.28-.42h3a1.63,1.63,0,0,1,1,.27c.22.19.24.5.08.93a4.56,4.56,0,0,1-1.26,1.55,37.36,37.36,0,0,0-3.37,3.82,5.61,5.61,0,0,0-1.41,2.49,3.62,3.62,0,0,0,1.36,2.66.47.47,0,0,1,.13.42.77.77,0,0,1-.39.4,1.87,1.87,0,0,1-.78.21l-3.87.34a2,2,0,0,1-1.46-.34,4.73,4.73,0,0,1-.9-1.3L199.22,626a1.5,1.5,0,0,1-1.61,1.19H193.2c-1,0-1.38-.41-1.19-1.25L199.06,599a1.52,1.52,0,0,1,1.65-1.19h4.4c1,0,1.39.41,1.19,1.24Z" transform="translate(-56.28 -103.21)"/><path class="cls-3" d="M223.38,626.83l-.16-.4-.32-.74-1-2.28h0l-.1-.24-.51.61a21.7,21.7,0,0,1-2.61,2.76,3,3,0,0,1-1.9.77h-.37a3.45,3.45,0,0,1-2.25-1.11,8.56,8.56,0,0,1-1.95-2.8,6.15,6.15,0,0,1-.6-3.14,49.92,49.92,0,0,1,3.08-12.53q2.49-6.65,4.8-8.39a6.92,6.92,0,0,1,4.35-1.41,7.44,7.44,0,0,1,4.56,1.57l3.31-12.36a1.51,1.51,0,0,1,1.65-1.19h3.95c1,0,1.38.41,1.19,1.24l-9,31.87a7.91,7.91,0,0,0,1-1.19c.39-.58.84-.67,1.35-.26l2.28,1.67c.55.42.66.85.34,1.29a24.53,24.53,0,0,1-4.77,4.63,11.11,11.11,0,0,1-5.38,2.22A.84.84,0,0,1,223.38,626.83ZM227.25,604c-1.42-.46-2.38-.51-2.89-.14-.74.57-1.7,2.42-2.86,5.55a47.52,47.52,0,0,0-2.36,8,5.15,5.15,0,0,0-.15,1.33c0,.21.16.31.41.31.69,0,1.8-1.45,3.33-4.37a73.56,73.56,0,0,0,4.23-9.92Z" transform="translate(-56.28 -103.21)"/><path class="cls-3" d="M243.42,619.17a4.09,4.09,0,0,0-.12,1.6c.08.24.33.43.76.57q.9-.18,3.63-3.1a.84.84,0,0,1,.53-.24.89.89,0,0,1,.56.14l2.65,1.61a1.06,1.06,0,0,1,.46.59.77.77,0,0,1,0,.63,17.3,17.3,0,0,1-4.41,4.67q-3.44,2.8-4.77,2.54-5.19-1.14-5.91-4.45a21.11,21.11,0,0,1,.34-7.11,51.89,51.89,0,0,1,2.56-9.41q1.74-4.63,3.57-6.34a12.06,12.06,0,0,1,2.56-1.89,7.94,7.94,0,0,1,2.78-.93,5,5,0,0,1,2.75.38,5.69,5.69,0,0,1,3.79,5.6,12.48,12.48,0,0,1-1.7,5.85,22,22,0,0,1-4.43,5.67A17.31,17.31,0,0,1,243.42,619.17Zm1.27-5.91a9.66,9.66,0,0,0,3.25-3.77,10.2,10.2,0,0,0,1.37-4.72,3,3,0,0,0-.15-1.15.56.56,0,0,0-.54-.31c-.27,0-.57.29-.92.85a10.23,10.23,0,0,0-.83,1.7A61.63,61.63,0,0,0,244.69,613.26Z" transform="translate(-56.28 -103.21)"/><path class="cls-3" d="M265.11,605.86l4-5.54a7.83,7.83,0,0,1,1.89-1.89,4,4,0,0,1,2.19-.6h2.65a2.75,2.75,0,0,1,2,.76c.51.52.6,1.42.26,2.71l-6.63,25.08c-.16.55-.61.82-1.35.82l-4.4-.05a.64.64,0,0,1-.52-.33,1.16,1.16,0,0,1,0-1l3.37-12.38c0-.16.1-.39.2-.7s.18-.57.24-.79.13-.46.21-.77a6.35,6.35,0,0,0,.16-.74c0-.19.05-.38.07-.57a1,1,0,0,0,0-.42.24.24,0,0,0-.23-.15.48.48,0,0,0-.3.11,1.58,1.58,0,0,0-.35.37l-.33.48-.4.66-.42.72c-1,1.6-2.42,4.26-4.28,8s-3,5.86-3.46,6.5a2.15,2.15,0,0,1-1.7,1h-3.32a.87.87,0,0,1-.75-.41,1.12,1.12,0,0,1-.12-1l7.08-26.41c.23-1,.77-1.51,1.62-1.51h3.47a1.73,1.73,0,0,1,1.35.38c.21.26.21.69,0,1.31Z" transform="translate(-56.28 -103.21)"/><path class="cls-3" d="M302,599.07,295,626a1.52,1.52,0,0,1-1.64,1.19H289c-1,0-1.39-.41-1.2-1.25L294.83,599a1.49,1.49,0,0,1,1.62-1.19h4.4C301.84,597.83,302.24,598.24,302,599.07Zm-5.85-8.51a3.59,3.59,0,0,1,1.14-2.7,3.88,3.88,0,0,1,2.86-1.12H301a3.47,3.47,0,0,1,2.48,1.18,3.69,3.69,0,0,1,1.15,2.64,3.43,3.43,0,0,1-1.18,2.66,4.18,4.18,0,0,1-2.93,1.08h-.72a3.37,3.37,0,0,1-2.5-1.13A3.64,3.64,0,0,1,296.19,590.56Z" transform="translate(-56.28 -103.21)"/><path class="cls-3" d="M312.46,605.86l4-5.54a7.85,7.85,0,0,1,1.9-1.89,4,4,0,0,1,2.19-.6h2.65a2.71,2.71,0,0,1,2,.76c.51.52.6,1.42.27,2.71l-6.63,25.08c-.16.55-.61.82-1.35.82l-4.41-.05a.63.63,0,0,1-.51-.33,1.12,1.12,0,0,1,0-1l3.37-12.38c0-.16.1-.39.19-.7s.18-.57.24-.79.14-.46.22-.77a6.05,6.05,0,0,0,.15-.74c0-.19.05-.38.07-.57a.88.88,0,0,0,0-.42.22.22,0,0,0-.22-.15.53.53,0,0,0-.31.11,1.58,1.58,0,0,0-.34.37c-.14.18-.25.34-.34.48s-.22.36-.39.66l-.43.72c-1,1.6-2.42,4.26-4.28,8s-3,5.86-3.46,6.5a2.14,2.14,0,0,1-1.7,1h-3.31a.89.89,0,0,1-.76-.41,1.19,1.19,0,0,1-.12-1l7.08-26.41c.23-1,.77-1.51,1.62-1.51h3.47a1.77,1.77,0,0,1,1.36.38c.21.26.21.69,0,1.31Z" transform="translate(-56.28 -103.21)"/><path class="cls-3" d="M347.91,626.83l-.16-.4-.31-.74-1-2.28h0l-.11-.24-.5.61a22.45,22.45,0,0,1-2.61,2.76,3,3,0,0,1-1.9.77H341a3.41,3.41,0,0,1-2.25-1.11,8.56,8.56,0,0,1-1.95-2.8,6,6,0,0,1-.6-3.14,49.92,49.92,0,0,1,3.08-12.53q2.49-6.65,4.8-8.39a6.89,6.89,0,0,1,4.34-1.41A7.4,7.4,0,0,1,353,599.5l3.32-12.36A1.51,1.51,0,0,1,358,586h4c1,0,1.39.41,1.2,1.24l-9,31.87a7.77,7.77,0,0,0,1-1.19c.39-.58.84-.67,1.36-.26l2.28,1.67c.54.42.66.85.34,1.29a24.53,24.53,0,0,1-4.77,4.63,11.15,11.15,0,0,1-5.38,2.22A.86.86,0,0,1,347.91,626.83ZM351.79,604c-1.42-.46-2.38-.51-2.89-.14-.75.57-1.7,2.42-2.87,5.55a48.47,48.47,0,0,0-2.36,8,5.47,5.47,0,0,0-.14,1.33c0,.21.16.31.41.31.69,0,1.8-1.45,3.32-4.37a73.56,73.56,0,0,0,4.23-9.92Z" transform="translate(-56.28 -103.21)"/><path class="cls-3" d="M368,619.17a4.09,4.09,0,0,0-.12,1.6c.08.24.33.43.76.57q.9-.18,3.63-3.1a.87.87,0,0,1,1.08-.1l2.66,1.61a1.11,1.11,0,0,1,.46.59.73.73,0,0,1,0,.63,17.06,17.06,0,0,1-4.4,4.67q-3.45,2.8-4.77,2.54-5.2-1.14-5.91-4.45a20.84,20.84,0,0,1,.34-7.11,51.89,51.89,0,0,1,2.56-9.41q1.74-4.63,3.57-6.34a12,12,0,0,1,2.55-1.89,8.06,8.06,0,0,1,2.79-.93,5,5,0,0,1,2.74.38,5.69,5.69,0,0,1,3.8,5.6,12.48,12.48,0,0,1-1.7,5.85,22,22,0,0,1-4.43,5.67A17.31,17.31,0,0,1,368,619.17Zm1.27-5.91a9.66,9.66,0,0,0,3.25-3.77,10.2,10.2,0,0,0,1.37-4.72,3,3,0,0,0-.15-1.15.56.56,0,0,0-.54-.31c-.27,0-.57.29-.92.85a10.23,10.23,0,0,0-.83,1.7A59.83,59.83,0,0,0,369.23,613.26Z" transform="translate(-56.28 -103.21)"/><path class="cls-3" d="M401.68,597.35h.93a7.29,7.29,0,0,1,4.26,1.43,8.5,8.5,0,0,1,2.95,3.45,1.44,1.44,0,0,1,.12.91,1.05,1.05,0,0,1-.49.84l-2.65,1.83a1.09,1.09,0,0,1-1.64-.27,6.54,6.54,0,0,0-3.48-2.54,3.84,3.84,0,0,0-1.4,1.76,6,6,0,0,0-.72,2.74,2.09,2.09,0,0,0,.4,1.38,2,2,0,0,0,1.3.8l1,.16a7.21,7.21,0,0,1,2.27.73,3.55,3.55,0,0,1,1.46,1.71,6.83,6.83,0,0,1,.49,3.15,12.9,12.9,0,0,1-.76,4,18.46,18.46,0,0,1-1.93,4,10.82,10.82,0,0,1-3,3.11,6.64,6.64,0,0,1-3.78,1.23h-.71a6.67,6.67,0,0,1-4.3-1.42,8.36,8.36,0,0,1-2.54-3.17,1.87,1.87,0,0,1,.1-2l2.34-1.85a1.46,1.46,0,0,1,1.15-.47,1.07,1.07,0,0,1,.86.68,5.05,5.05,0,0,0,1.39,1.58,1.92,1.92,0,0,0,3.52-1.32,10.45,10.45,0,0,0,.63-3.23,2.29,2.29,0,0,0-.63-1.66,3,3,0,0,0-1.75-.81l-.72-.1a4,4,0,0,1-2.88-1.45,5.33,5.33,0,0,1-.8-3.33,13.27,13.27,0,0,1,1.47-5.66,13.6,13.6,0,0,1,3.47-4.47A6.55,6.55,0,0,1,401.68,597.35Z" transform="translate(-56.28 -103.21)"/></g><g class="cls-4"><path class="cls-3" d="M424.37,591.2l-1.67,6.63h2.92c.42,0,.7.09.82.27a1.1,1.1,0,0,1,0,.92l-.93,3.05a1.4,1.4,0,0,1-1.4,1.19H421.3L415.52,626a1.5,1.5,0,0,1-1.62,1.19h-4.19a1.39,1.39,0,0,1-1.22-.5,1.54,1.54,0,0,1-.18-1.25L414,603.26h-2.06c-.38,0-.62-.09-.73-.28a1.43,1.43,0,0,1,0-1l.87-3.1a1.58,1.58,0,0,1,.47-.84,1.24,1.24,0,0,1,.73-.19h2.09l1.73-6.69a1.5,1.5,0,0,1,1.61-1.19h4.51C424.17,590,424.57,590.37,424.37,591.2Z" transform="translate(-56.28 -103.21)"/></g><g class="cls-4"><path class="cls-3" d="M434.63,626.83l-1.43-3.42h0l-.1-.24-.5.61a22.34,22.34,0,0,1-2.62,2.76,3,3,0,0,1-1.89.77h-.4c-.62,0-1.52-.59-2.71-1.78a6.31,6.31,0,0,1-2.06-5.27A49.88,49.88,0,0,1,426,607.73q2.49-6.65,4.8-8.39a6.92,6.92,0,0,1,4.35-1.41,7.49,7.49,0,0,1,4.46,1.51l.05-.26a5.51,5.51,0,0,1,.21-.72,1.28,1.28,0,0,1,.4-.5,1.12,1.12,0,0,1,.74-.24l3.47-.05c1.35,0,1.86.6,1.54,1.8l-6,19.94a8.7,8.7,0,0,0,1.16-1.49.9.9,0,0,1,1.38-.37l2.39,1.57c.56.39.69.8.37,1.24a21.2,21.2,0,0,1-4.46,4.78,10.41,10.41,0,0,1-5.33,2.28A.89.89,0,0,1,434.63,626.83ZM438.5,604c-1.41-.46-2.38-.51-2.92-.14q-1.11.85-2.85,5.55a49.14,49.14,0,0,0-2.34,8,5.15,5.15,0,0,0-.15,1.33c0,.21.17.31.41.31s.71-.32,1.26-1a19.81,19.81,0,0,0,1.9-2.77A57.72,57.72,0,0,0,438.5,604Z" transform="translate(-56.28 -103.21)"/><path class="cls-3" d="M457.62,626.83l-.16-.4-.32-.74-.95-2.28h0l-.1-.24-.51.61a21.7,21.7,0,0,1-2.61,2.76,3,3,0,0,1-1.9.77h-.37a3.45,3.45,0,0,1-2.25-1.11,8.56,8.56,0,0,1-2-2.8,6.15,6.15,0,0,1-.6-3.14A49.92,49.92,0,0,1,449,607.73q2.49-6.65,4.8-8.39a6.92,6.92,0,0,1,4.35-1.41,7.44,7.44,0,0,1,4.56,1.57L466,587.14a1.51,1.51,0,0,1,1.65-1.19h3.95c1,0,1.38.41,1.19,1.24l-9,31.87a7.91,7.91,0,0,0,1-1.19c.39-.58.84-.67,1.35-.26l2.28,1.67c.55.42.66.85.34,1.29A24.53,24.53,0,0,1,464,625.2a11.11,11.11,0,0,1-5.38,2.22A.84.84,0,0,1,457.62,626.83ZM461.49,604c-1.42-.46-2.38-.51-2.89-.14-.74.57-1.7,2.42-2.86,5.55a47.52,47.52,0,0,0-2.36,8,5.15,5.15,0,0,0-.15,1.33c0,.21.16.31.41.31.69,0,1.8-1.45,3.33-4.37a73.56,73.56,0,0,0,4.23-9.92Z" transform="translate(-56.28 -103.21)"/><path class="cls-3" d="M492.54,617a99.33,99.33,0,0,0,6.36-18.35,1.28,1.28,0,0,1,1.54-1l4.27.32a1.59,1.59,0,0,1,1,.46.8.8,0,0,1,.17.89q-5.7,16.79-10.92,24.77a14.31,14.31,0,0,1-1.83,2.33,2.33,2.33,0,0,1-1.59.77l-3.82-.27a2.07,2.07,0,0,1-1.34-.82,2.63,2.63,0,0,1-.44-1.91,111.73,111.73,0,0,0,.49-11.83q0-6.44-.54-12.48c-.18-1.34.26-2,1.3-2h4.19a1.27,1.27,0,0,1,.93.29,1.58,1.58,0,0,1,.37,1A97.19,97.19,0,0,1,492.54,617Z" transform="translate(-56.28 -103.21)"/><path class="cls-3" d="M517.17,626.83l-1.43-3.42h0l-.1-.24-.51.61a21.7,21.7,0,0,1-2.61,2.76,3,3,0,0,1-1.89.77h-.4c-.62,0-1.52-.59-2.71-1.78a6.35,6.35,0,0,1-2.07-5.27,49.92,49.92,0,0,1,3.08-12.53q2.49-6.65,4.8-8.39a6.92,6.92,0,0,1,4.35-1.41,7.44,7.44,0,0,1,4.45,1.51l.06-.26a5.51,5.51,0,0,1,.21-.72,1.28,1.28,0,0,1,.4-.5,1.12,1.12,0,0,1,.74-.24l3.47-.05c1.35,0,1.86.6,1.54,1.8l-6,19.94a8.82,8.82,0,0,0,1.17-1.49.9.9,0,0,1,1.38-.37l2.39,1.57c.56.39.68.8.37,1.24a21.43,21.43,0,0,1-4.46,4.78,10.44,10.44,0,0,1-5.33,2.28A.89.89,0,0,1,517.17,626.83ZM521,604c-1.42-.46-2.39-.51-2.92-.14q-1.11.85-2.85,5.55a48.16,48.16,0,0,0-2.34,8,5.15,5.15,0,0,0-.15,1.33c0,.21.16.31.41.31s.7-.32,1.26-1a19.81,19.81,0,0,0,1.9-2.77A57.72,57.72,0,0,0,521,604Z" transform="translate(-56.28 -103.21)"/><path class="cls-3" d="M538.67,605.86l4-5.54a7.83,7.83,0,0,1,1.89-1.89,4,4,0,0,1,2.19-.6h2.65a2.75,2.75,0,0,1,2,.76c.51.52.6,1.42.26,2.71L545,626.38c-.15.55-.61.82-1.35.82l-4.4-.05a.64.64,0,0,1-.52-.33,1.16,1.16,0,0,1,0-1l3.37-12.38c0-.16.1-.39.2-.7s.18-.57.24-.79.13-.46.21-.77a6.35,6.35,0,0,0,.16-.74c0-.19.05-.38.07-.57a1,1,0,0,0,0-.42.24.24,0,0,0-.23-.15.48.48,0,0,0-.3.11,1.58,1.58,0,0,0-.35.37l-.33.48-.4.66-.42.72c-1,1.6-2.42,4.26-4.28,8s-3,5.86-3.46,6.5a2.15,2.15,0,0,1-1.7,1h-3.32a.87.87,0,0,1-.75-.41,1.12,1.12,0,0,1-.12-1l7.08-26.41c.23-1,.77-1.51,1.62-1.51h3.47a1.73,1.73,0,0,1,1.35.38c.21.26.21.69,0,1.31Z" transform="translate(-56.28 -103.21)"/><path class="cls-3" d="M570.25,597.83h4.45a1.31,1.31,0,0,1,1,.34.93.93,0,0,1,.19.9L568.84,626a16.37,16.37,0,0,1-1.59,3.91,15.48,15.48,0,0,1-2.14,3,16.64,16.64,0,0,1-2.42,2.11,14.74,14.74,0,0,1-2.29,1.39,13.25,13.25,0,0,1-1.87.73,1.43,1.43,0,0,1-1.7-.45L555.11,634a1.27,1.27,0,0,1-.25-1,1,1,0,0,1,.67-.79,10.43,10.43,0,0,0,3.85-2.77,10.6,10.6,0,0,0,2.46-4.5l6.84-25.9A1.47,1.47,0,0,1,570.25,597.83Zm.11-7.27a3.62,3.62,0,0,1,1.15-2.69,4,4,0,0,1,2.88-1.13h.76a3.46,3.46,0,0,1,2.48,1.18,3.71,3.71,0,0,1,1.16,2.64,3.41,3.41,0,0,1-1.2,2.66,4.2,4.2,0,0,1-2.94,1.08H574a3.43,3.43,0,0,1-2.52-1.13A3.65,3.65,0,0,1,570.36,590.56Z" transform="translate(-56.28 -103.21)"/><path class="cls-3" d="M582.76,619.17a4.09,4.09,0,0,0-.12,1.6c.08.24.34.43.76.57q.9-.18,3.63-3.1a.84.84,0,0,1,.53-.24.87.87,0,0,1,.56.14l2.65,1.61a1.13,1.13,0,0,1,.47.59.77.77,0,0,1,0,.63,17.39,17.39,0,0,1-4.4,4.67q-3.45,2.8-4.78,2.54-5.19-1.14-5.91-4.45a20.91,20.91,0,0,1,.35-7.11,51.86,51.86,0,0,1,2.55-9.41q1.74-4.63,3.57-6.34a12.06,12.06,0,0,1,2.56-1.89,7.94,7.94,0,0,1,2.78-.93,5,5,0,0,1,2.75.38,5.68,5.68,0,0,1,3.79,5.6,12.48,12.48,0,0,1-1.7,5.85,21.78,21.78,0,0,1-4.43,5.67A17.31,17.31,0,0,1,582.76,619.17Zm1.28-5.91a9.72,9.72,0,0,0,3.24-3.77,10.2,10.2,0,0,0,1.37-4.72,3,3,0,0,0-.15-1.15.54.54,0,0,0-.54-.31c-.26,0-.57.29-.91.85a9.57,9.57,0,0,0-.84,1.7A60.06,60.06,0,0,0,584,613.26Z" transform="translate(-56.28 -103.21)"/><path class="cls-3" d="M615.3,605.86l4-5.54a7.85,7.85,0,0,1,1.9-1.89,4,4,0,0,1,2.19-.6H626a2.71,2.71,0,0,1,2,.76c.52.52.6,1.42.27,2.71l-1.06,4,3.76-4.85a7.3,7.3,0,0,1,2.14-2.12,4.46,4.46,0,0,1,2.26-.59h2a2.4,2.4,0,0,1,2,.86c.45.58.49,1.57.12,3L633,626.38c-.16.55-.61.82-1.35.82l-4.41-.05a.63.63,0,0,1-.51-.33,1.12,1.12,0,0,1,0-1l3.5-12.38c0-.21.14-.54.26-1s.23-.81.32-1.13.17-.64.24-1a4.08,4.08,0,0,0,.11-.78c0-.19,0-.28-.14-.28a.57.57,0,0,0-.32.13,2.53,2.53,0,0,0-.35.43c-.14.19-.25.37-.35.53s-.24.4-.42.73-.33.58-.44.75c-.88,1.58-2.23,4.21-4,7.91s-3,5.88-3.41,6.57a1.39,1.39,0,0,1-1.35.82l-4.4-.05a.63.63,0,0,1-.52-.33,1.16,1.16,0,0,1,0-1l3.37-12.38a6.58,6.58,0,0,1,.2-.7c.09-.31.17-.57.23-.79s.14-.46.22-.77a6.35,6.35,0,0,0,.16-.74l.06-.57a.77.77,0,0,0,0-.42.22.22,0,0,0-.22-.15.53.53,0,0,0-.31.11,1.58,1.58,0,0,0-.34.37,4.2,4.2,0,0,0-.33.48c-.09.14-.23.36-.4.66l-.43.72c-1,1.6-2.41,4.26-4.28,8s-3,5.86-3.46,6.5a2.14,2.14,0,0,1-1.7,1h-3.31a.89.89,0,0,1-.76-.41,1.19,1.19,0,0,1-.12-1L611,599.34c.23-1,.77-1.51,1.62-1.51h3.48c.67,0,1.1.12,1.29.37a1.55,1.55,0,0,1,.06,1.32Z" transform="translate(-56.28 -103.21)"/><path class="cls-3" d="M642.08,604.83a14.27,14.27,0,0,1,4-5.35,9.2,9.2,0,0,1,6.08-2.13,7.73,7.73,0,0,1,3.57.77,6,6,0,0,1,2.56,2.86,7.26,7.26,0,0,1,.68,2.08,13,13,0,0,1,.24,2c0,.48,0,1.29,0,2.44a24.67,24.67,0,0,1-1.06,6.95,29.23,29.23,0,0,1-2.84,6.57,17.87,17.87,0,0,1-4.07,4.83,7.39,7.39,0,0,1-4.63,1.77,9.63,9.63,0,0,1-2.94-.38,6.07,6.07,0,0,1-2.44-1.71,8.06,8.06,0,0,1-1.8-3.43,16.6,16.6,0,0,1-.59-4.39A30.1,30.1,0,0,1,642.08,604.83ZM650,618.35a29.83,29.83,0,0,0,2.39-6.58,18.55,18.55,0,0,0,.53-2.73,13.34,13.34,0,0,0,0-3.57c-.16-1.19-.58-1.79-1.25-1.79a2.43,2.43,0,0,0-2,1.15,14.49,14.49,0,0,0-1.72,3.36l-.3.74-.49,1.3c-.15.41-.33,1-.55,1.65s-.41,1.33-.56,1.92a18.25,18.25,0,0,0-.38,2,12.48,12.48,0,0,0-.16,1.91,8.56,8.56,0,0,0,.25,2.52,1.45,1.45,0,0,0,1.21.9,3,3,0,0,0,1.56-.69A7.61,7.61,0,0,0,650,618.35Z" transform="translate(-56.28 -103.21)"/><path class="cls-3" d="M666.47,619.17a4.09,4.09,0,0,0-.12,1.6c.08.24.33.43.76.57q.9-.18,3.63-3.1a.84.84,0,0,1,.53-.24.89.89,0,0,1,.56.14l2.65,1.61a1.11,1.11,0,0,1,.46.59.73.73,0,0,1,0,.63,17.06,17.06,0,0,1-4.4,4.67q-3.45,2.8-4.77,2.54c-3.46-.76-5.44-2.24-5.91-4.45a20.84,20.84,0,0,1,.34-7.11,51.89,51.89,0,0,1,2.56-9.41q1.74-4.63,3.57-6.34A11.82,11.82,0,0,1,668.9,599a7.94,7.94,0,0,1,2.78-.93,5,5,0,0,1,2.74.38,5.69,5.69,0,0,1,3.8,5.6,12.48,12.48,0,0,1-1.7,5.85,22,22,0,0,1-4.43,5.67A17.31,17.31,0,0,1,666.47,619.17Zm1.27-5.91a9.66,9.66,0,0,0,3.25-3.77,10.2,10.2,0,0,0,1.37-4.72,3,3,0,0,0-.15-1.15.56.56,0,0,0-.54-.31c-.27,0-.57.29-.92.85a10.23,10.23,0,0,0-.83,1.7A59.83,59.83,0,0,0,667.74,613.26Z" transform="translate(-56.28 -103.21)"/><path class="cls-3" d="M689.64,626.83l-.16-.4-.31-.74-1-2.28h0l-.11-.24-.5.61a23.25,23.25,0,0,1-2.61,2.76,3,3,0,0,1-1.9.77h-.37a3.41,3.41,0,0,1-2.25-1.11,8.56,8.56,0,0,1-2-2.8,6,6,0,0,1-.6-3.14A49.5,49.5,0,0,1,681,607.73q2.49-6.65,4.79-8.39a6.92,6.92,0,0,1,4.35-1.41,7.4,7.4,0,0,1,4.56,1.57l3.32-12.36a1.51,1.51,0,0,1,1.64-1.19h3.95c1,0,1.39.41,1.2,1.24l-9.05,31.87a7.36,7.36,0,0,0,1-1.19c.39-.58.84-.67,1.35-.26l2.28,1.67c.55.42.67.85.35,1.29A24.53,24.53,0,0,1,696,625.2a11.14,11.14,0,0,1-5.39,2.22A.85.85,0,0,1,689.64,626.83ZM693.51,604c-1.41-.46-2.37-.51-2.89-.14q-1.11.85-2.86,5.55a48.47,48.47,0,0,0-2.36,8,6.3,6.3,0,0,0-.15,1.33c0,.21.17.31.42.31.69,0,1.79-1.45,3.32-4.37a73.56,73.56,0,0,0,4.23-9.92Z" transform="translate(-56.28 -103.21)"/><path class="cls-3" d="M709.69,619.17a4.09,4.09,0,0,0-.12,1.6q.12.36.75.57c.6-.12,1.82-1.15,3.64-3.1a.82.82,0,0,1,.53-.24.86.86,0,0,1,.55.14l2.66,1.61a1.11,1.11,0,0,1,.46.59.73.73,0,0,1,0,.63,17.06,17.06,0,0,1-4.4,4.67q-3.45,2.8-4.77,2.54-5.21-1.14-5.92-4.45a21.17,21.17,0,0,1,.35-7.11,51.89,51.89,0,0,1,2.56-9.41c1.16-3.09,2.34-5.2,3.56-6.34a12.32,12.32,0,0,1,2.56-1.89,8,8,0,0,1,2.79-.93,5,5,0,0,1,2.74.38,5.68,5.68,0,0,1,3.79,5.6,12.45,12.45,0,0,1-1.69,5.85,22,22,0,0,1-4.43,5.67A17.42,17.42,0,0,1,709.69,619.17Zm1.27-5.91a9.74,9.74,0,0,0,3.25-3.77,10.18,10.18,0,0,0,1.36-4.72,3,3,0,0,0-.14-1.15.56.56,0,0,0-.55-.31c-.26,0-.57.29-.91.85a10.3,10.3,0,0,0-.84,1.7A61.87,61.87,0,0,0,711,613.26Z" transform="translate(-56.28 -103.21)"/><path class="cls-3" d="M733.1,602.76c.69-1,1.41-2,2.17-2.92,0-.05.11-.15.23-.28l.21-.25a2.59,2.59,0,0,1,.17-.21l.18-.2.15-.16c.08-.08.15-.14.19-.19l.17-.16a1.07,1.07,0,0,1,.22-.15l.21-.15a4.3,4.3,0,0,1,2.28-.42h3a1.59,1.59,0,0,1,1,.27c.23.19.25.5.08.93a4.39,4.39,0,0,1-1.25,1.55,37.36,37.36,0,0,0-3.37,3.82,5.61,5.61,0,0,0-1.41,2.49,3.64,3.64,0,0,0,1.35,2.66.46.46,0,0,1,.14.42.77.77,0,0,1-.39.4,1.87,1.87,0,0,1-.78.21l-3.87.34a2,2,0,0,1-1.46-.34,4.73,4.73,0,0,1-.9-1.3L727,626a1.5,1.5,0,0,1-1.62,1.19H721c-1,0-1.39-.41-1.19-1.25L726.84,599a1.51,1.51,0,0,1,1.65-1.19h4.4c1,0,1.39.41,1.19,1.24Z" transform="translate(-56.28 -103.21)"/></g></g></svg>