<svg id="Layer_1" data-name="Layer 1" xmlns="http://www.w3.org/2000/svg" viewBox="0 0 588 571.63"><defs><style>.cls-1{fill:#fff;}</style></defs><path class="cls-1" d="M694,365.33c-14.55,6.94-29.08,27.5-37.73,45,.13-4.55,3.37-17,4-21.9,31.84-17.73,28.8-54.91,33.77-92.62-12.35,7.44-22.8,33.76-28.14,48.43-1.77-3.46-.4-18.52-.61-21.68,23.3-13.18,20.3-58.1,16.49-91.23-8.84,11.89-16.6,35.12-19.17,48.39-.75-4.53-.87-9.08-2-16.62,20.82-20.75,4.55-65.07-1.91-93-7.33,12.54-6.62,33.34-6.52,53.49-5.07-22.59-6-48.67-19.58-68.21-10.1-14.51-21.73-25.87-34-40.66,8,17.09,14.12,39.61,22.39,58.32,10.38,23.47,20.79,25.33,28.57,51.89-8.81-13.71-19.43-27.18-37.15-32.09,10.9,22.26,21.39,58.48,46.29,70.88.52,5.65,1.28,11,1.33,16.05-7.27-13-16.1-29-32.69-34.78,11.61,25.58,13.13,61.47,35.29,76.24v22.73c-5.81-18.1-13.48-34.33-27.44-44.12,4.62,16.61,2.68,46.47,9.15,66.87,2.23,7,6.51,16.38,12.77,21.21a139.11,139.11,0,0,1-4.87,21.47c-1.86-22.16-8.65-40.59-19.67-53.4,1.4,27.59-10,74.17,5.23,96.31-2.22,6.64-5.62,12.08-7.83,18.72.59-18.53-.93-43.82-10.47-56.17-4.38,32-23.92,67.83-14.63,101-2.9,5.4-7.87,12.14-12.55,18.06,6.38-16.55,10.32-44.58.95-62.73-5.66,28.09-28.21,49.43-33.86,80.11a184.15,184.15,0,0,0-2,18.51C554.28,574.94,547,581,544,583.37c9.65-15.07,14.31-32.6,12.23-59.68-17.76,29.95-48,47.29-53.24,88.56a70.44,70.44,0,0,1-17.71,10.22c11.61-15.79,25.82-37.13,23-59.91-7.25,7.9-16,17.25-17.5,18.64-21.49,20-43.32,26.87-54.16,58.3-12.2,4.9-25.22,9-36.6,14.73-11.38-5.76-24.38-9.83-36.58-14.73-10.84-31.43-32.67-38.33-54.16-58.3-1.5-1.39-10.25-10.74-17.5-18.64-2.84,22.78,11.37,44.12,23,59.91A70.1,70.1,0,0,1,297,612.25c-5.28-41.27-35.48-58.61-53.24-88.56-2.08,27.08,2.58,44.61,12.25,59.68-3-2.38-10.34-8.43-13.41-13.62a184.15,184.15,0,0,0-2-18.51c-5.67-30.68-28.2-52-33.86-80.11-9.39,18.15-5.43,46.18.93,62.73C203,527.94,198,521.2,195.12,515.8c9.29-33.16-10.25-69-14.65-101C171,427.16,169.43,452.45,170,471c-2.22-6.64-5.61-12.08-7.83-18.72,15.26-22.14,3.83-68.72,5.22-96.31-11,12.81-17.8,31.24-19.68,53.4a141.33,141.33,0,0,1-4.85-21.47c3.92-4.29,9.81-12.06,12.77-21.21,6.47-20.4,4.53-50.26,9.15-66.87-14,9.79-21.63,26-27.45,44.12V321.19C159.51,306.42,161,270.53,172.64,245c-16.58,5.76-25.41,21.8-32.68,34.78,0-5,.81-10.4,1.31-16.05,24.92-12.4,35.39-48.62,46.31-70.88-17.72,4.91-28.34,18.38-37.15,32.09C158.21,198.33,168.6,196.47,179,173c8.27-18.71,14.37-41.23,22.39-58.32-12.27,14.79-23.9,26.15-34,40.66-13.59,19.54-14.52,45.62-19.58,68.21.1-20.15.81-41-6.54-53.49-6.46,27.94-22.71,72.26-1.89,93-1.08,7.54-1.2,12.09-1.95,16.62-2.58-13.27-10.35-36.5-19.17-48.39-3.81,33.13-6.81,78.05,16.49,91.23-.21,3.16,1,22.08-1.31,21.39-5.35-14.65-15.11-40.7-27.44-48.14,5,37.71,2.13,75.89,34,93.62.94,5.44,3.62,16.35,3.77,20.9-8.65-17.47-23.18-38-37.73-45,12.49,35.35,16.5,79.39,53.57,89.61,1.62,4.72,4.79,12.9,7.84,20.06-15-12.75-30.27-32.7-46.37-34.32,20.17,30.64,25.27,71.53,69.9,77.12,3.23,4.9,10.05,14,13.24,19.49-14.94-11.45-36.37-25.69-56.37-27.52,26.38,25.17,38.14,65.77,90.91,63.92,3.73,3.93,11.51,11.6,13.62,14.44-16.76-7.37-38.15-16.56-61.4-12.82,28.3,18.1,57.64,58.22,103.22,41.47,6.59,4.07,13.11,6.18,18.29,10.68-20.63-2.06-50-6.21-66.68,2.19,30.09,9.32,52.75,31.14,87.58,28.59,15.41-1.13,20.77-9.16,28.62-9.57,4.65-.23,23,6.25,28.88,9.57a71.2,71.2,0,0,0-27.93,28.08h10.71c6-9.87,15.44-19.24,26.36-24.08,10.94,4.84,20.39,14.21,26.38,24.08h10.69a71,71,0,0,0-27.91-28.08c5.87-3.32,24.23-9.8,28.86-9.57,7.87.41,13.23,8.44,28.62,9.57,34.85,2.55,57.5-19.27,87.6-28.59-16.66-8.4-46.05-4.25-66.68-2.19,5.18-4.5,11.69-6.61,18.28-10.68,45.57,16.75,74.93-23.37,103.23-41.47-23.25-3.74-44.66,5.45-61.4,12.82,2.09-2.84,9.89-10.51,13.62-14.44,52.75,1.85,64.53-38.75,90.91-63.92-20,1.83-41.43,16.07-56.39,27.52,3.21-5.49,10-14.59,13.26-19.49,44.63-5.59,49.73-46.48,69.88-77.12-16.09,1.62-31.37,21.57-46.36,34.32,3.06-7.16,6.21-15.34,7.85-20.06,37.05-10.22,41.08-54.26,53.57-89.61" transform="translate(-106 -114.68)"/><path class="cls-1" d="M275.27,396H256.71l15.88-46.1h56.62L344.35,396H329v11.4h59.57V396h-8.29l-29.3-78.38-31.25-94.91H301.88l-33.44,95.2L238.89,396H224.73v11.4h50.54Zm71-80.26s12,34.44,17.58,69.15c-14.14-31.46-25.87-65.1-25.87-65.1s-14.16-39.05-21-71.33c14.89,27.67,29.28,67.28,29.28,67.28m-12.2,6.23s10.75,30.64,18.55,63.72a594.41,594.41,0,0,1-26.12-60.47S313.59,284,309.21,257.11c11.7,23.05,24.88,64.82,24.88,64.82m-32-52.07,17.57,48.54,5.62,19.26H276.48l7.33-19.79ZM273.31,316s10-28.21,22.72-52.62c-5.14,20.08-17.11,54.24-17.11,54.24S267,351.76,253.54,379.42c7.8-29.84,19.77-63.46,19.77-63.46" transform="translate(-106 -114.68)"/><path class="cls-1" d="M394.47,279.57c2,0,4.19-.88,4.84-2.86l17.18-47.54h.42L396.68,323.8c-.23,1.54.66,3.52,2.19,3.75l25.32,5.28c1.31.21,3.51-4.19,3.95-5.28q13.23-28.38,24.44-57.45c1.09,3.09,4.18,9.47,8.14,9.47,2.86,0,5-1.77,5-4.84a3.06,3.06,0,0,0-1.53-2.65c-6.17-4-6.17-10.56-6.17-17.38a6.18,6.18,0,0,1,.67-2.2l2.19-7a246.88,246.88,0,0,0,6.61-25.09c2-9,3.07-18.26,4.17-27.52.44-4,1.55-8.59,1.55-12.54s-7.91-4.4-10.79-5.06h-.65a3.17,3.17,0,0,0-3.31,2.42c-1.54,4.84-2.42,11.89-3.51,17-3.31,16.72-5.73,33.67-5.73,50.84,0,4,.23,7.91.44,11.89-7.47,22-17.17,43.35-26.62,64.69h-.23l20.25-95.29a3.25,3.25,0,0,0-2.19-4l-25.76-5.28c-1.54-.23-3.52,4.4-4,5.49-1.76,5.07-19.36,52.38-19.36,54.15a2.48,2.48,0,0,0,2.63,2.42" transform="translate(-106 -114.68)"/><path class="cls-1" d="M489,459.33c.59-5-1.24-10.18-11.19-10.18H470L465,472.08h7.88c9.57,0,15.29-5.57,16.14-12.75" transform="translate(-106 -114.68)"/><path class="cls-1" d="M500.53,406.08c.6-5.19-1.23-10.39-11.17-10.39h-7.87l-5,23.14h7.87c9.76,0,15.29-5.57,16.14-12.75" transform="translate(-106 -114.68)"/><path class="cls-1" d="M415.47,377,382.54,528.6l82.39,0c13.45,0,28.56-3.92,40-13.39l22.5-19.54c7.78-7.36,13.54-17.58,15.16-31.47,1.6-13.55-3.09-23.1-9.13-28.88,10.58-7,20.22-19.13,22.08-34.94,1.31-11.11-1.39-21.13-7.6-28.2-7-8-18.07-12.11-32.87-12.29l-79.71,0ZM389.78,522.41l31.35-142.57,12.05-10.3L402.07,512Zm124.3-156.62c32.46,0,37.25,19.95,35.6,33.92-2.29,19.54-17.58,31.51-28.32,35.09,6.74,1.8,17.53,10.58,15.39,28.72-1.64,14-12,41.88-51.82,41.86H409.87l30.28-139.6Z" transform="translate(-106 -114.68)"/></svg>