<svg id="Layer_1" data-name="Layer 1" xmlns="http://www.w3.org/2000/svg" xmlns:xlink="http://www.w3.org/1999/xlink" viewBox="0 0 687.19 432.77"><defs><style>.cls-1{fill:none;}.cls-2{clip-path:url(#clip-path);}.cls-3{fill:#fff;}</style><clipPath id="clip-path" transform="translate(0 0)"><rect class="cls-1" x="0.03" y="0.01" width="687.17" height="432.75"/></clipPath></defs><g class="cls-2"><path class="cls-3" d="M87.4,192.79H5.63A5,5,0,0,1,1,190.39a7.61,7.61,0,0,1-.65-5.78L45.93,5.86Q47.49,0,53.86,0H76.48a5,5,0,0,1,4.68,2.47,7.84,7.84,0,0,1,.65,5.85L42.94,161.08H94q8.06,0,6.11,8.58L96.5,185.39a8.41,8.41,0,0,1-3.31,5.19,9.26,9.26,0,0,1-5.79,2.21" transform="translate(0 0)"/><path class="cls-3" d="M189.83,79.18q-10.4-3.37-14.3-.65-5.46,4.16-14,27.17T150,145.09a27.33,27.33,0,0,0-.72,6.5,1.74,1.74,0,0,0,2,1.56q2.08,0,6.18-4.75a95,95,0,0,0,9.33-13.61q12-20.55,23-55.64m-19,112-7-16.76H164l-.52-1.17-2.47,3q-8.19,9.75-12.8,13.52t-9.29,3.77h-2q-4.56,0-13.27-8.7Q112,173.28,113.47,159q2.85-28.86,15.08-61.43t23.52-41.14a34,34,0,0,1,21.32-6.89,36.71,36.71,0,0,1,21.84,7.41l.26-1.3a25.09,25.09,0,0,1,1-3.51,6.1,6.1,0,0,1,1.94-2.47,5.58,5.58,0,0,1,3.64-1.17l17-.26q9.88,0,7.54,8.84l-29.2,97.72a45.62,45.62,0,0,0,5.72-7.28q2.6-4.29,6.76-1.82l11.7,7.67q4.16,2.85,1.82,6.11a104.2,104.2,0,0,1-21.84,23.4q-12.47,9.74-26.13,11.17c-2.08.27-3.64-.69-4.68-2.86" transform="translate(0 0)"/><path class="cls-3" d="M276.28,88.41l19.5-27.17A37.89,37.89,0,0,1,305.07,52a19.3,19.3,0,0,1,10.73-3h13a13.39,13.39,0,0,1,9.92,3.78q3.76,3.76,1.29,13.26l-32.49,123c-.78,2.68-3,4-6.64,4l-21.62-.26a3.1,3.1,0,0,1-2.53-1.62q-1.11-1.62-.19-4.75l16.51-60.7a34.05,34.05,0,0,1,1-3.45c.51-1.52.87-2.79,1.17-3.83s.65-2.3,1-3.77A32.29,32.29,0,0,0,297,111c.13-1,.24-1.89.32-2.8a4.21,4.21,0,0,0-.19-2.08,1.14,1.14,0,0,0-1.1-.71,2.55,2.55,0,0,0-1.5.52,8.35,8.35,0,0,0-1.69,1.82c-.65.87-1.19,1.64-1.62,2.34s-1.09,1.78-2,3.25l-2.08,3.51q-7.29,11.82-21,39t-17,31.84q-3.74,5.07-8.27,5.07h-16.2a4.29,4.29,0,0,1-3.71-2,5.68,5.68,0,0,1-.58-4.88L255.14,56.44Q256.82,49,263.07,49h17c3.37,0,5.59.63,6.62,1.88s1,3.41,0,6.44Z" transform="translate(0 0)"/><path class="cls-3" d="M412.64,79.18q-10.39-3.37-14.17-.65-5.46,4.17-14,27.17t-11.61,39.39a24.5,24.5,0,0,0-.65,6.5,1.84,1.84,0,0,0,2.08,1.55c1.38,0,3.44-1.57,6.18-4.74a95.9,95.9,0,0,0,9.25-13.61q12.61-21.58,21.45-51.74Zm-26.92,94.9-2,2.21Q375.58,186,371,189.81t-9.25,3.77h-1.83q-4.56,0-13.26-8.72Q335.07,173.3,336.49,159q2.86-28.86,15.08-61.43T375.1,56.43a34,34,0,0,1,21.32-6.89q12,0,22.75,8.06,2.46-8.33,8.32-8.32L443.74,49q7,0,5.59,7.15Q444,77.62,434.25,112.39T415.6,177.72q-8.91,30.54-9.43,32.36-5.71,20.67-18.33,27.43a68.55,68.55,0,0,1-10.66,5,18.31,18.31,0,0,1-8.45.52A31.06,31.06,0,0,1,358,238.79l-27.17-15.34c-2.34-1-3.59-2.6-3.77-4.68a5.74,5.74,0,0,1,1.69-4.93l8.45-11.45a10.17,10.17,0,0,1,4.23-3,6.83,6.83,0,0,1,4.62.79l23.13,12.61q4.56,2.33,7.15-6.25Z" transform="translate(0 0)"/><path class="cls-3" d="M87.4,427.58H5.63A5,5,0,0,1,1,425.17a7.61,7.61,0,0,1-.65-5.78L45.93,240.65q1.56-5.86,7.93-5.86H76.48a5,5,0,0,1,4.68,2.47,7.84,7.84,0,0,1,.65,5.85L42.94,395.86H94q8.06,0,6.11,8.58L96.5,420.17a8.43,8.43,0,0,1-3.31,5.2,9.26,9.26,0,0,1-5.79,2.21" transform="translate(0 0)"/><path class="cls-3" d="M152.52,359.46q9.24-5.85,15.93-18.46t6.69-23.14c0-2.77-.23-4.66-.71-5.65a2.69,2.69,0,0,0-2.67-1.5c-1.29,0-2.79,1.39-4.48,4.16a48.69,48.69,0,0,0-4.1,8.32q-5.19,13.51-10.66,36.27m-6.24,29q-1.17,6.1-.58,7.86c.39,1.17,1.62,2.11,3.71,2.8q4.41-.92,17.81-15.21a4,4,0,0,1,2.59-1.17,4.12,4.12,0,0,1,2.73.65l13,7.93a5.3,5.3,0,0,1,2.28,2.86,3.7,3.7,0,0,1,.06,3.12q-4.68,9.1-21.58,22.88t-23.39,12.48q-25.48-5.6-29-21.84-2.32-11.44,1.7-34.84a254.61,254.61,0,0,1,12.54-46.19q8.5-22.74,17.49-31.07a59.09,59.09,0,0,1,12.54-9.29,39.51,39.51,0,0,1,13.65-4.55,24.19,24.19,0,0,1,13.45,1.91q18.58,7.93,18.6,27.43,0,13.26-8.33,28.67a106.83,106.83,0,0,1-21.71,27.81q-13.38,12.42-27.56,17.75" transform="translate(0 0)"/><path class="cls-3" d="M253.92,377.79q21.06-46.41,31.2-90,1.29-5.58,7.54-5.07l20.93,1.56a7.72,7.72,0,0,1,4.87,2.28,3.93,3.93,0,0,1,.85,4.35q-28,82.29-53.56,121.42a70.85,70.85,0,0,1-9,11.46c-2.6,2.51-5.2,3.76-7.8,3.77l-18.72-1.3a10.31,10.31,0,0,1-6.56-4c-1.78-2.26-2.5-5.37-2.15-9.36a561.55,561.55,0,0,0,2.4-58q-.18-31.53-2.66-61.17-1.3-9.87,6.37-9.88h20.54a6.26,6.26,0,0,1,4.55,1.43,7.73,7.73,0,0,1,1.82,4.68q3.76,40.56-.65,87.88" transform="translate(0 0)"/><path class="cls-3" d="M356.36,359.46q9.22-5.85,15.92-18.46T379,317.86c0-2.77-.23-4.66-.71-5.65a2.67,2.67,0,0,0-2.67-1.5c-1.33,0-2.83,1.39-4.48,4.16a49.39,49.39,0,0,0-4.09,8.32q-5.2,13.51-10.66,36.27m-6.24,29q-1.17,6.1-.59,7.86c.39,1.17,1.62,2.11,3.71,2.8q4.41-.92,17.81-15.21a4.06,4.06,0,0,1,2.6-1.17,4.12,4.12,0,0,1,2.73.65l13,7.93a5.36,5.36,0,0,1,2.27,2.86,3.74,3.74,0,0,1,.07,3.12q-4.68,9.1-21.58,22.88t-23.42,12.47q-25.49-5.59-29-21.84-2.34-11.44,1.69-34.84A254.59,254.59,0,0,1,332,329.79q8.5-22.74,17.49-31.07A59.09,59.09,0,0,1,362,289.43a39.79,39.79,0,0,1,13.65-4.55,24.21,24.21,0,0,1,13.46,1.91q18.6,7.93,18.6,27.43,0,13.26-8.33,28.67a107.22,107.22,0,0,1-21.67,27.81q-13.39,12.42-27.56,17.75" transform="translate(0 0)"/><path class="cls-3" d="M411.47,414.84a16.62,16.62,0,0,1,5.33-12.42,18.6,18.6,0,0,1,13.39-5.13h3.38q6.24,0,11.64,5.39a16.83,16.83,0,0,1,5.39,12.16,16.35,16.35,0,0,1-5.46,12.48,19.27,19.27,0,0,1-13.65,5.07h-3.25a15.7,15.7,0,0,1-11.76-5.27,17.2,17.2,0,0,1-5-12.28" transform="translate(0 0)"/><path class="cls-3" d="M473.48,414.84a16.65,16.65,0,0,1,5.33-12.42,18.5,18.5,0,0,1,13.39-5.13h3.38q6.24,0,11.63,5.39a16.8,16.8,0,0,1,5.4,12.16,16.35,16.35,0,0,1-5.46,12.48,19.27,19.27,0,0,1-13.65,5.07h-3.25a15.73,15.73,0,0,1-11.76-5.27,17.2,17.2,0,0,1-5-12.28" transform="translate(0 0)"/><path class="cls-3" d="M535.49,414.84a16.62,16.62,0,0,1,5.33-12.42,18.5,18.5,0,0,1,13.39-5.13h3.38q6.24,0,11.63,5.39c3.59,3.6,5.4,7.65,5.4,12.16a16.35,16.35,0,0,1-5.46,12.48,19.27,19.27,0,0,1-13.65,5.07h-3.25a15.74,15.74,0,0,1-11.77-5.27,17.32,17.32,0,0,1-5-12.28" transform="translate(0 0)"/><path class="cls-3" d="M613.44,370.12,642.62,238.3c1-3.89,3.71-5.84,8-5.84h30.5q7.26,0,5.84,6.11L641.84,370.38q-1.56,5.85-7.91,5.85H619.28q-7.26,0-5.84-6.11M597.5,414.84a16.78,16.78,0,0,1,5.22-12.42A18.25,18.25,0,0,1,616,397.29h3.5q6.22,0,11.6,5.39a16.83,16.83,0,0,1,5.39,12.16,16.39,16.39,0,0,1-5.45,12.48,19.19,19.19,0,0,1-13.62,5.07h-3.21a15.71,15.71,0,0,1-11.73-5.27,17.32,17.32,0,0,1-5-12.28" transform="translate(0 0)"/></g></svg>